<?xml version="1.0" encoding="UTF-8"?>
<svg xmlns="http://www.w3.org/2000/svg" version="1.0" width="500px" height="500px" viewBox="0 0 500 500" preserveAspectRatio="xMidYMid meet" style="background: transparent;">
 
 <g fill="#484646">
  <path d="M184.13 464.79 c-17.38 -3.42 -29.93 -17.92 -29.98 -34.62 0 -10.01 3.91 -17.87 11.38 -22.90 14.45 -9.62 33.25 -1.37 34.52 15.14 0.93 11.87 -10.74 19.19 -18.21 11.47 -3.61 -3.76 -3.96 -8.69 -0.93 -13.48 l1.22 -1.90 -1.07 -0.59 c-0.59 -0.29 -2.15 -0.44 -3.66 -0.34 -3.52 0.29 -6.25 2.25 -8.11 5.76 -1.32 2.54 -1.42 2.98 -1.22 7.37 0.15 4.25 0.34 5.03 2 8.40 3.86 7.81 11.47 12.06 21.58 12.06 22.31 0 39.45 -22.75 42.72 -56.74 0.54 -5.27 0.54 -24.95 0 -25.49 -0.15 -0.10 -11.57 -0.49 -25.39 -0.73 -38.09 -0.83 -71.39 -2.15 -74.85 -3.03 -2.88 -0.73 -3.47 -2.10 -3.08 -7.18 0.54 -6.74 2.64 -20.61 4.44 -29.64 7.96 -39.11 23.58 -76.90 44.53 -107.57 8.25 -12.06 15.38 -21.14 27 -34.23 8.84 -10.01 9.38 -10.89 9.67 -15.63 0.15 -2.49 -0.10 -5.22 -0.63 -7.91 -1.81 -9.08 -7.91 -25.24 -17.04 -45.07 -5.18 -11.38 -6.49 -13.09 -12.26 -16.06 l-3.91 -2.05 -0.15 -2.59 c-0.15 -2.64 1.95 -17.63 2.88 -20.51 1.07 -3.37 3.56 -3.32 11.62 0.10 7.57 3.22 9.08 3.71 11.04 3.71 3.17 0 10.74 -3.32 15.97 -6.93 2.78 -1.95 4.15 -3.61 6.30 -7.71 l1.17 -2.20 3.08 -0.15 c2.64 -0.15 3.03 -0.24 3.03 -1.12 0 -0.54 -0.68 -1.81 -1.51 -2.83 -4.15 -5.22 -3.71 -12.94 1.03 -17.68 4.10 -4.05 9.67 -4.93 14.99 -2.20 4.74 2.34 7.23 6.74 6.88 11.96 -0.20 3.17 -0.73 4.64 -3.08 8.79 -0.63 1.17 -1.07 2.29 -0.93 2.54 0.15 0.24 1.66 0.44 3.37 0.44 l3.17 0 1.27 2.59 c1.76 3.42 2.64 4.49 5.76 6.88 4.83 3.76 13.38 7.62 16.89 7.62 1.61 0 9.57 -2.54 14.55 -4.64 3.86 -1.61 6.69 -1.51 7.96 0.24 0.88 1.22 3.37 16.41 3.37 20.51 0 2.54 -1.07 3.56 -5.52 5.37 -2.10 0.88 -4.44 2.20 -5.22 3.03 -1.61 1.56 -8.98 16.02 -16.26 31.64 -8.64 18.75 -11.23 26.46 -11.28 33.69 -0.05 5.27 0.34 6.01 7.62 14.65 16.46 19.58 24.51 30.66 34.38 47.36 18.31 30.91 30.81 65.43 37.30 103.03 1.76 10.35 2.93 20.41 2.93 25.54 0 3.32 -0.15 3.96 -1.12 4.93 -1.03 1.03 -1.76 1.22 -6.74 1.46 -12.55 0.73 -41.41 1.27 -67.87 1.27 l-28.13 0 -0.34 1.86 c-0.49 2.93 -0.34 19.73 0.20 24.90 2.20 20.65 10.21 38.53 21.39 47.71 6.01 4.98 14.26 8.06 21.48 8.06 3.61 0 9.67 -1.51 12.94 -3.27 8.54 -4.59 13.28 -14.55 10.84 -22.85 -1.51 -5.27 -6.69 -9.13 -11.13 -8.30 -2.93 0.59 -3.13 0.93 -1.66 3.13 5.32 8.01 -0.29 18.21 -9.18 16.85 -6.74 -0.98 -11.04 -8.15 -9.67 -16.11 2 -11.57 12.74 -19.34 24.56 -17.72 7.47 1.03 15.38 7.03 18.85 14.26 5.13 10.84 3.32 23.68 -4.93 34.13 -4.49 5.76 -12.26 10.69 -20.26 12.89 -4.93 1.42 -16.02 1.27 -21.48 -0.20 -15.38 -4.20 -27.25 -14.55 -37.55 -32.81 -2.05 -3.61 -2.83 -4.54 -3.52 -4.10 -0.20 0.10 -1.03 1.66 -1.90 3.52 -6.05 12.99 -16.75 24.37 -28.03 29.88 -7.08 3.47 -13.09 4.88 -20.26 4.83 -3.13 -0.05 -6.64 -0.24 -7.81 -0.49z"/>
 </g>
</svg>